<?xml version="1.0" standalone="no"?>
<!DOCTYPE svg PUBLIC "-//W3C//DTD SVG 20010904//EN"
 "http://www.w3.org/TR/2001/REC-SVG-20010904/DTD/svg10.dtd">
<svg version="1.0" xmlns="http://www.w3.org/2000/svg"
 width="250.000000pt" height="250.000000pt" viewBox="0 0 250.000000 250.000000"
 preserveAspectRatio="xMidYMid meet">
<metadata>
Created by potrace 1.14, written by Peter Selinger 2001-2017
</metadata>
<g transform="translate(0.000000,250.000000) scale(0.100000,-0.100000)"
fill="#000000" stroke="none">
<path d="M0 1250 l0 -1250 1250 0 1250 0 0 1250 0 1250 -1250 0 -1250 0 0
-1250z m1380 909 c185 -47 343 -135 481 -266 86 -83 189 -227 234 -328 65
-147 109 -388 86 -466 -29 -98 -169 -112 -214 -21 -8 15 -17 68 -20 117 -13
215 -125 430 -296 572 -124 102 -326 182 -465 184 -82 0 -126 17 -153 58 -27
40 -29 71 -8 115 27 57 57 68 170 62 55 -3 138 -15 185 -27z m-82 -380 c291
-89 496 -350 504 -641 2 -61 0 -71 -23 -94 -30 -30 -77 -34 -113 -10 -28 18
-29 21 -45 141 -15 107 -63 208 -137 285 -100 105 -196 152 -344 169 -52 6
-88 15 -100 26 -42 38 -32 115 20 143 33 17 148 8 238 -19z m-601 -551 l223
-223 46 47 c39 38 47 52 48 87 2 32 10 49 34 74 28 27 40 32 82 32 40 0 54 -5
78 -28 76 -72 30 -197 -73 -200 -28 -1 -44 -11 -82 -49 l-47 -48 222 -223
c122 -123 222 -231 222 -241 0 -33 -19 -53 -78 -79 -107 -48 -176 -62 -317
-61 -120 0 -137 2 -225 33 -124 42 -221 103 -307 194 -88 93 -134 169 -174
287 -64 192 -43 435 51 588 39 63 51 55 297 -190z"/>
</g>
</svg>
